# xmcd
#
# Track frame offsets:
#	150
#	14610
#	29872
#	46911
#	62194
#	82158
#	96317
#	116884
#	128740
#	145914
#	160310
#	172731
#	190504
#	201812
#	219773
#	234995
#
# Disc length: 3351 seconds
#
# Revision: 0
# Processed by: cddbd v1.5.2PL0 Copyright (c) Steve Scherf et al.
# Submitted via: EasyCDDAExtractor 10.5.1.1
#
DISCID=e00d1510
DTITLE=Rune Rudberg - Rett Fra Sofaen
DYEAR=2007
DGENRE=Pop
TTITLE0=Nå Har Alle Folk Fått Se'N
TTITLE1=Ut Mot Havet 2007
TTITLE2=Velkommen Til Hotel Cæcar Del I
TTITLE3=When You Smile
TTITLE4=Kjærlighet Gjør Blind
TTITLE5=Peder Med Mopeden
TTITLE6=Det Fineste Jeg Vet
TTITLE7=Velkommen Til Hotel Cæsar Del Ii
TTITLE8=På Bedre Tanker
TTITLE9=Alle Mann Til Pumpene
TTITLE10=1001 - 1002 - 1003
TTITLE11=Runaway
TTITLE12=Sånn Kan Det Gå (Playstation 2)
TTITLE13=De Ord Som Mor Mi Sa
TTITLE14=Du Veit At Det Er Sant (For Du Leste Det I Se Og Hør)
TTITLE15=Give Me A Sign
EXTD=
EXTT0=
EXTT1=
EXTT2=
EXTT3=
EXTT4=
EXTT5=
EXTT6=
EXTT7=
EXTT8=
EXTT9=
EXTT10=
EXTT11=
EXTT12=
EXTT13=
EXTT14=
EXTT15=
PLAYORDER=
